# xmcd
#
# Track frame offsets: 
#        150
#        20191
#        37966
#        51328
#        68061
#        80601
#        94331
#        124074
#        140403
#        159567
#
# Disc length: 2336 seconds
#
# Revision: 0
# Processed by: cddbd v1.5.2PL0 Copyright (c) Steve Scherf et al.
# Submitted via: ExactAudioCopy v0.99pb4
#
DISCID=89091e0a
DTITLE=Carly Bak - People and Places I've Been
DYEAR=2011
DGENRE=Americana
TTITLE0=Turner Camp Waltz
TTITLE1=Boil That Sugarcane Down
TTITLE2=On The Parkway
TTITLE3=Anina's Theme
TTITLE4=Honey Won't You Please
TTITLE5=Ode To A Cowboy
TTITLE6=I Really Don't Care
TTITLE7=Man In The Moon
TTITLE8=Praire Reminiscence
TTITLE9=Love Is Like A Fine Wine
EXTD=
EXTT0=
EXTT1=
EXTT2=
EXTT3=
EXTT4=
EXTT5=
EXTT6=
EXTT7=
EXTT8=
EXTT9=
PLAYORDER=
